<?xml version="1.0" standalone="no"?>
<!DOCTYPE svg PUBLIC "-//W3C//DTD SVG 20010904//EN"
 "http://www.w3.org/TR/2001/REC-SVG-20010904/DTD/svg10.dtd">
<svg version="1.0" xmlns="http://www.w3.org/2000/svg"
 width="300.000000pt" height="300.000000pt" viewBox="0 0 300.000000 300.000000"
 preserveAspectRatio="xMidYMid meet">
<metadata>
Created by potrace 1.10, written by Peter Selinger 2001-2011
</metadata>
<g transform="translate(0.000000,300.000000) scale(0.100000,-0.100000)"
fill="currentColor" stroke="none">
<path d="M1275 2791 c-272 -64 -491 -191 -675 -394 l-53 -58 53 -54 54 -54 90
92 c250 256 585 373 933 326 149 -20 319 -82 439 -159 33 -22 65 -40 70 -40 5
0 32 23 59 51 l50 50 -28 23 c-92 74 -275 161 -424 202 -88 24 -119 27 -293
30 -163 3 -208 0 -275 -15z"/>
<path d="M1415 2330 c-152 -24 -308 -103 -420 -214 -235 -233 -299 -565 -165
-862 101 -224 319 -397 558 -444 78 -16 255 -8 337 14 70 19 185 71 185 83 0
5 -22 31 -49 57 l-50 49 -80 -27 c-111 -36 -206 -43 -311 -22 -135 28 -218 72
-317 168 -131 128 -183 250 -183 430 0 193 46 304 180 438 132 133 248 180
440 180 89 0 117 -4 187 -29 l81 -28 54 54 c51 52 52 55 34 69 -24 17 -112 50
-186 70 -71 19 -218 26 -295 14z"/>
<path d="M600 855 l-53 -53 21 -29 c11 -16 58 -64 104 -108 321 -307 758 -416
1203 -300 126 33 415 186 415 220 0 12 -91 105 -104 105 -4 0 -28 -14 -52 -31
-76 -52 -226 -118 -335 -147 -95 -25 -119 -27 -274 -26 -150 0 -181 3 -267 27
-197 53 -358 147 -509 298 l-97 97 -52 -53z"/>
</g>
</svg>
